#Comment line ignore any data following # character 
#Hierarchical Translation and Rotation (.htr) file 
[Header]	
#Header keywords are followed by a single value 
FileType HTR		#Single word string
DataType HTRS		#Translation followed by rotation and scale data
FileVersion 1		#integer
NumSegments 84		#integer
NumFrames 2		#integer
DataFrameRate 30		#integer, data frame rate in this file
EulerRotationOrder ZYX
CalibrationUnits mm
RotationUnits Degrees
GlobalAxisofGravity Y
BoneLengthAxis Y
ScaleFactor 1.00
[SegmentNames&Hierarchy]
#CHILD	PARENT
MASTER GLOBAL
root MASTER
chest root
L_mid_tent01 root
R_mid_tent01 root
spine01 root
Bip01_Neck chest
L_humerus chest
R_humerus chest
weapon_bone chest
Bip01_Head Bip01_Neck
eye_left_bone Bip01_Head
eye_right_bone Bip01_Head
L_forearm L_humerus
L_front_hand L_forearm
L_weapon_bone L_forearm
L_front_hand01_01 L_front_hand
L_front_hand02_01 L_front_hand
L_front_hand03_01 L_front_hand
L_front_hand01_02 L_front_hand01_01
L_front_hand02_02 L_front_hand02_01
L_front_hand03_02 L_front_hand03_01
R_forearm R_humerus
R_front_hand R_forearm
R_weapon_bone R_forearm
R_front_hand01_01 R_front_hand
R_front_hand02_01 R_front_hand
R_front_hand03_01 R_front_hand
R_front_hand01_02 R_front_hand01_01
R_front_hand02_02 R_front_hand02_01
R_front_hand03_02 R_front_hand03_01
null_rope01_connect L_mid_tent01
Rope1_Seg01 null_rope01_connect
Rope1_Seg02 Rope1_Seg01
Rope1_Seg03 Rope1_Seg02
Rope1_Seg04 Rope1_Seg03
Rope1_Seg05 Rope1_Seg04
Rope1_Seg06 Rope1_Seg05
Rope1_Seg07 Rope1_Seg06
Rope1_Seg09 Rope1_Seg07
L_mid_hand01 Rope1_Seg09
L_mid_hand02 Rope1_Seg09
L_mid_hand03 Rope1_Seg09
null_rope02_connect R_mid_tent01
Rope2_Seg01 null_rope02_connect
Rope2_Seg02 Rope2_Seg01
Rope2_Seg03 Rope2_Seg02
Rope2_Seg04 Rope2_Seg03
Rope2_Seg05 Rope2_Seg04
Rope2_Seg06 Rope2_Seg05
Rope2_Seg07 Rope2_Seg06
Rope2_Seg09 Rope2_Seg07
R_mid_hand01 Rope2_Seg09
R_mid_hand02 Rope2_Seg09
R_mid_hand03 Rope2_Seg09
spine02 spine01
spine03 spine02
pelvis spine03
null_rope03_connect pelvis
null_rope04_connect pelvis
Rope3_Seg01 null_rope03_connect
Rope3_Seg02 Rope3_Seg01
Rope3_Seg03 Rope3_Seg02
Rope3_Seg04 Rope3_Seg03
Rope3_Seg05 Rope3_Seg04
Rope3_Seg06 Rope3_Seg05
Rope3_Seg07 Rope3_Seg06
Rope3_Seg08 Rope3_Seg07
Rope3_Seg09 Rope3_Seg08
R_rear_hand01 Rope3_Seg09
R_rear_hand02 Rope3_Seg09
R_rear_hand03 Rope3_Seg09
Rope4_Seg01 null_rope04_connect
Rope4_Seg02 Rope4_Seg01
Rope4_Seg03 Rope4_Seg02
Rope4_Seg04 Rope4_Seg03
Rope4_Seg05 Rope4_Seg04
Rope4_Seg06 Rope4_Seg05
Rope4_Seg07 Rope4_Seg06
Rope4_Seg08 Rope4_Seg07
Rope4_Seg09 Rope4_Seg08
L_rear_hand01 Rope4_Seg09
L_rear_hand02 Rope4_Seg09
L_rear_hand03 Rope4_Seg09
[BasePosition]
#SegmentName Tx, Ty, Tz, Rx, Ry, Rz, BoneLength
MASTER 0.000000 0.000000 0.000000 -90.000000 0.000000 0.000000 10.000000 
root 0.000000 0.000000 0.000000 0.000000 0.000000 0.000000 10.000000 
chest 0.000000 0.000000 0.000000 0.000000 0.000000 0.000000 10.000000 
L_mid_tent01 0.000000 0.000000 0.000000 0.000000 0.000000 0.000000 10.000000 
R_mid_tent01 0.000000 0.000000 0.000000 0.000000 0.000000 0.000000 10.000000 
spine01 0.000000 0.000000 0.000000 0.000000 0.000000 0.000000 10.000000 
Bip01_Neck 0.000000 0.000000 0.000000 0.000000 0.000000 0.000000 10.000000 
L_humerus 0.000000 0.000000 0.000000 0.000000 0.000000 0.000000 10.000000 
R_humerus 0.000000 0.000000 0.000000 0.000000 0.000000 0.000000 10.000000 
weapon_bone 0.000000 0.000000 0.000000 0.000000 0.000000 0.000000 10.000000 
Bip01_Head 0.000000 0.000000 0.000000 0.000000 0.000000 0.000000 10.000000 
eye_left_bone 0.000000 0.000000 0.000000 0.000000 0.000000 0.000000 10.000000 
eye_right_bone 0.000000 0.000000 0.000000 0.000000 0.000000 0.000000 10.000000 
L_forearm 0.000000 0.000000 0.000000 0.000000 0.000000 0.000000 10.000000 
L_front_hand 0.000000 0.000000 0.000000 0.000000 0.000000 0.000000 10.000000 
L_weapon_bone 0.000000 0.000000 0.000000 0.000000 0.000000 0.000000 10.000000 
L_front_hand01_01 0.000000 0.000000 0.000000 0.000000 0.000000 0.000000 10.000000 
L_front_hand02_01 0.000000 0.000000 0.000000 0.000000 0.000000 0.000000 10.000000 
L_front_hand03_01 0.000000 0.000000 0.000000 0.000000 0.000000 0.000000 10.000000 
L_front_hand01_02 0.000000 0.000000 0.000000 0.000000 0.000000 0.000000 10.000000 
L_front_hand02_02 0.000000 0.000000 0.000000 0.000000 0.000000 0.000000 10.000000 
L_front_hand03_02 0.000000 0.000000 0.000000 0.000000 0.000000 0.000000 10.000000 
R_forearm 0.000000 0.000000 0.000000 0.000000 0.000000 0.000000 10.000000 
R_front_hand 0.000000 0.000000 0.000000 0.000000 0.000000 0.000000 10.000000 
R_weapon_bone 0.000000 0.000000 0.000000 0.000000 0.000000 0.000000 10.000000 
R_front_hand01_01 0.000000 0.000000 0.000000 0.000000 0.000000 0.000000 10.000000 
R_front_hand02_01 0.000000 0.000000 0.000000 0.000000 0.000000 0.000000 10.000000 
R_front_hand03_01 0.000000 0.000000 0.000000 0.000000 0.000000 0.000000 10.000000 
R_front_hand01_02 0.000000 0.000000 0.000000 0.000000 0.000000 0.000000 10.000000 
R_front_hand02_02 0.000000 0.000000 0.000000 0.000000 0.000000 0.000000 10.000000 
R_front_hand03_02 0.000000 0.000000 0.000000 0.000000 0.000000 0.000000 10.000000 
null_rope01_connect 0.000000 0.000000 0.000000 0.000000 0.000000 0.000000 10.000000 
Rope1_Seg01 0.000000 0.000000 0.000000 0.000000 0.000000 0.000000 10.000000 
Rope1_Seg02 0.000000 0.000000 0.000000 0.000000 0.000000 0.000000 10.000000 
Rope1_Seg03 0.000000 0.000000 0.000000 0.000000 0.000000 0.000000 10.000000 
Rope1_Seg04 0.000000 0.000000 0.000000 0.000000 0.000000 0.000000 10.000000 
Rope1_Seg05 0.000000 0.000000 0.000000 0.000000 0.000000 0.000000 10.000000 
Rope1_Seg06 0.000000 0.000000 0.000000 0.000000 0.000000 0.000000 10.000000 
Rope1_Seg07 0.000000 0.000000 0.000000 0.000000 0.000000 0.000000 10.000000 
Rope1_Seg09 0.000000 0.000000 0.000000 0.000000 0.000000 0.000000 10.000000 
L_mid_hand01 0.000000 0.000000 0.000000 0.000000 0.000000 0.000000 10.000000 
L_mid_hand02 0.000000 0.000000 0.000000 0.000000 0.000000 0.000000 10.000000 
L_mid_hand03 0.000000 0.000000 0.000000 0.000000 0.000000 0.000000 10.000000 
null_rope02_connect 0.000000 0.000000 0.000000 0.000000 0.000000 0.000000 10.000000 
Rope2_Seg01 0.000000 0.000000 0.000000 0.000000 0.000000 0.000000 10.000000 
Rope2_Seg02 0.000000 0.000000 0.000000 0.000000 0.000000 0.000000 10.000000 
Rope2_Seg03 0.000000 0.000000 0.000000 0.000000 0.000000 0.000000 10.000000 
Rope2_Seg04 0.000000 0.000000 0.000000 0.000000 0.000000 0.000000 10.000000 
Rope2_Seg05 0.000000 0.000000 0.000000 0.000000 0.000000 0.000000 10.000000 
Rope2_Seg06 0.000000 0.000000 0.000000 0.000000 0.000000 0.000000 10.000000 
Rope2_Seg07 0.000000 0.000000 0.000000 0.000000 0.000000 0.000000 10.000000 
Rope2_Seg09 0.000000 0.000000 0.000000 0.000000 0.000000 0.000000 10.000000 
R_mid_hand01 0.000000 0.000000 0.000000 0.000000 0.000000 0.000000 10.000000 
R_mid_hand02 0.000000 0.000000 0.000000 0.000000 0.000000 0.000000 10.000000 
R_mid_hand03 0.000000 0.000000 0.000000 0.000000 0.000000 0.000000 10.000000 
spine02 0.000000 0.000000 0.000000 0.000000 0.000000 0.000000 10.000000 
spine03 0.000000 0.000000 0.000000 0.000000 0.000000 0.000000 10.000000 
pelvis 0.000000 0.000000 0.000000 0.000000 0.000000 0.000000 10.000000 
null_rope03_connect 0.000000 0.000000 0.000000 0.000000 0.000000 0.000000 10.000000 
null_rope04_connect 0.000000 0.000000 0.000000 0.000000 0.000000 0.000000 10.000000 
Rope3_Seg01 0.000000 0.000000 0.000000 0.000000 0.000000 0.000000 10.000000 
Rope3_Seg02 0.000000 0.000000 0.000000 0.000000 0.000000 0.000000 10.000000 
Rope3_Seg03 0.000000 0.000000 0.000000 0.000000 0.000000 0.000000 10.000000 
Rope3_Seg04 0.000000 0.000000 0.000000 0.000000 0.000000 0.000000 10.000000 
Rope3_Seg05 0.000000 0.000000 0.000000 0.000000 0.000000 0.000000 10.000000 
Rope3_Seg06 0.000000 0.000000 0.000000 0.000000 0.000000 0.000000 10.000000 
Rope3_Seg07 0.000000 0.000000 0.000000 0.000000 0.000000 0.000000 10.000000 
Rope3_Seg08 0.000000 0.000000 0.000000 0.000000 0.000000 0.000000 10.000000 
Rope3_Seg09 0.000000 0.000000 0.000000 0.000000 0.000000 0.000000 10.000000 
R_rear_hand01 0.000000 0.000000 0.000000 0.000000 0.000000 0.000000 10.000000 
R_rear_hand02 0.000000 0.000000 0.000000 0.000000 0.000000 0.000000 10.000000 
R_rear_hand03 0.000000 0.000000 0.000000 0.000000 0.000000 0.000000 10.000000 
Rope4_Seg01 0.000000 0.000000 0.000000 0.000000 0.000000 0.000000 10.000000 
Rope4_Seg02 0.000000 0.000000 0.000000 0.000000 0.000000 0.000000 10.000000 
Rope4_Seg03 0.000000 0.000000 0.000000 0.000000 0.000000 0.000000 10.000000 
Rope4_Seg04 0.000000 0.000000 0.000000 0.000000 0.000000 0.000000 10.000000 
Rope4_Seg05 0.000000 0.000000 0.000000 0.000000 0.000000 0.000000 10.000000 
Rope4_Seg06 0.000000 0.000000 0.000000 0.000000 0.000000 0.000000 10.000000 
Rope4_Seg07 0.000000 0.000000 0.000000 0.000000 0.000000 0.000000 10.000000 
Rope4_Seg08 0.000000 0.000000 0.000000 0.000000 0.000000 0.000000 10.000000 
Rope4_Seg09 0.000000 0.000000 0.000000 0.000000 0.000000 0.000000 10.000000 
L_rear_hand01 0.000000 0.000000 0.000000 0.000000 0.000000 0.000000 10.000000 
L_rear_hand02 0.000000 0.000000 0.000000 0.000000 0.000000 0.000000 10.000000 
L_rear_hand03 0.000000 0.000000 0.000000 0.000000 0.000000 0.000000 10.000000 
#Beginning of Data. Separated by tabs
#Fr	Tx	Ty	Tz	Rx	Ry	Rz	SF
[MASTER]
16 -1399.005371 -2855.227051 0.000000 0.000312 0.002327 -74.707954 3179.549805
17 -1446.800049 -3063.219727 0.000000 0.000343 0.002323 -73.187851 3387.705078
[root]
16 -62.822266 24.936939 1011.683472 -90.299316 -7.577554 -179.832977 1013.938782
17 -62.822060 37.310131 1020.031433 -89.087120 -7.876690 -179.645691 1022.645020
[chest]
16 -84.512650 -34.090519 0.000000 17.800537 -0.745612 156.383911 91.129311
17 -84.512650 -34.090519 0.000000 16.773264 -0.745230 156.387543 91.129311
[L_mid_tent01]
16 23.228750 24.509907 -223.761200 -10.881434 7.580579 -7.361919 226.294907
17 23.228750 24.509907 -223.761200 -9.088057 5.505848 -4.683982 226.294907
[R_mid_tent01]
16 23.228794 24.509907 226.238495 -161.528732 -0.223062 -17.301395 228.744751
17 23.228794 24.509907 226.238495 -162.114777 -9.692876 -18.850660 228.744751
[spine01]
16 -0.361383 -0.195265 0.000000 0.001815 0.001488 11.320962 0.410763
17 -0.361383 -0.195265 0.000000 0.001815 0.001488 11.320962 0.410763
[Bip01_Neck]
16 165.484543 71.581718 0.000119 175.896118 1.177290 24.871183 180.302734
17 165.484543 71.581718 0.000119 175.896118 1.177290 24.871183 180.302734
[L_humerus]
16 -13.983130 -135.272980 -120.471481 162.568481 28.213840 -108.205818 181.680161
17 -13.983130 -135.272980 -120.471481 161.379822 32.361053 -108.457664 181.680161
[R_humerus]
16 -13.983309 -135.273102 125.287651 -165.538879 -19.067837 -102.912392 184.909012
17 -13.983309 -135.273102 125.287651 -165.113373 -23.435356 -102.750130 184.909012
[weapon_bone]
16 235.964890 -300.705902 0.000000 0.000000 -89.951546 -128.212341 382.234833
17 235.964890 -300.705902 0.000000 0.000000 -89.951546 -128.212341 382.234833
[Bip01_Head]
16 201.313675 211.516769 15.929850 13.206373 4.590003 -70.747749 292.438538
17 201.313675 211.516769 15.929857 11.796394 4.309161 -69.940758 292.438538
[eye_left_bone]
16 -24.626970 125.451866 -64.772606 0.000000 -90.000000 -99.840431 143.318359
17 -24.626970 125.451866 -64.772606 0.000000 -90.000000 -99.840431 143.318359
[eye_right_bone]
16 -24.626970 125.451866 64.327362 0.000000 -89.965736 80.156380 143.117676
17 -24.626970 125.451866 64.327362 0.000000 -89.965736 80.156380 143.117676
[L_forearm]
16 322.776093 0.000000 -0.000119 0.000357 -0.002320 -107.506004 322.776093
17 322.776093 0.000000 -0.000119 0.000357 -0.002320 -107.506004 322.776093
[L_front_hand]
16 241.149185 -0.042021 -3.300071 -179.431961 -2.195943 -5.942918 241.171753
17 241.149185 -0.042021 -3.300071 -179.431961 -2.195943 -5.942918 241.171753
[L_weapon_bone]
16 156.183838 0.000000 0.000000 0.000014 0.000007 0.000001 156.183838
17 156.183838 0.000000 0.000000 0.000014 0.000007 0.000001 156.183838
[L_front_hand01_01]
16 86.095154 20.947098 -0.655860 0.139491 -0.584553 24.181786 88.609184
17 86.095154 20.947098 -0.655860 0.139491 -0.584553 24.181791 88.609184
[L_front_hand02_01]
16 86.935165 -11.437475 24.513514 119.190460 -21.905655 -12.119137 91.046425
17 86.935165 -11.437475 24.513514 119.190460 -21.905655 -12.119137 91.046425
[L_front_hand03_01]
16 86.637497 -14.123976 -20.424902 -120.437630 20.554031 -14.327168 90.126129
17 86.637497 -14.123976 -20.424902 -120.437630 20.554031 -14.327168 90.126129
[L_front_hand01_02]
16 71.020905 -0.000179 0.000030 0.000334 -0.002323 -106.379684 71.020905
17 71.020905 -0.000179 0.000030 0.000334 -0.002323 -106.379684 71.020905
[L_front_hand02_02]
16 71.020927 -0.000119 0.000060 0.000334 -0.002323 -106.379684 71.020927
17 71.020927 -0.000119 0.000060 0.000334 -0.002323 -106.379684 71.020927
[L_front_hand03_02]
16 71.020905 -0.000060 0.000060 0.000334 -0.002323 -106.379684 71.020905
17 71.020905 -0.000060 0.000060 0.000334 -0.002323 -106.379684 71.020905
[R_forearm]
16 322.776428 -0.000060 0.000030 0.196737 0.083011 -114.368637 322.776428
17 322.776428 -0.000060 0.000030 0.196737 0.083011 -114.368637 322.776428
[R_front_hand]
16 238.847015 -0.006795 2.210259 -0.341870 1.692706 -0.151780 238.857239
17 238.847015 -0.006795 2.210259 -0.341870 1.692705 -0.151779 238.857239
[R_weapon_bone]
16 155.664093 0.002503 -0.000030 0.003487 0.001180 -90.988930 155.664078
17 155.664093 0.002503 -0.000030 0.003487 0.001180 -90.988930 155.664078
[R_front_hand01_01]
16 87.624611 14.231146 22.918642 -119.218056 -22.033409 12.303375 91.683487
17 87.624611 14.231146 22.918642 -119.218056 -22.033409 12.303375 91.683487
[R_front_hand02_01]
16 89.356956 14.367283 -19.491137 120.545532 20.947184 14.823009 92.579636
17 89.356956 14.367283 -19.491137 120.545532 20.947184 14.823009 92.579636
[R_front_hand03_01]
16 87.286232 -22.307278 -0.143439 -0.231628 -0.392922 -24.567768 90.091743
17 87.286232 -22.307278 -0.143439 -0.231628 -0.392922 -24.567768 90.091743
[R_front_hand01_02]
16 71.020905 0.000060 0.000119 0.002323 -0.000334 106.381714 71.020905
17 71.020905 0.000060 0.000119 0.002323 -0.000334 106.381714 71.020905
[R_front_hand02_02]
16 71.020844 -0.000030 -0.000119 0.002323 -0.000334 106.381714 71.020836
17 71.020844 -0.000030 -0.000119 0.002323 -0.000334 106.381714 71.020836
[R_front_hand03_02]
16 71.020905 0.000000 0.000030 0.002323 -0.000334 106.381714 71.020905
17 71.020905 0.000000 0.000030 0.002323 -0.000334 106.381714 71.020905
[null_rope01_connect]
16 328.732483 0.000000 -0.000238 -149.402939 79.691154 136.033783 328.732483
17 328.732483 0.000000 -0.000238 -124.481934 77.972008 158.607330 328.732483
[Rope1_Seg01]
16 -0.000019 0.000019 0.000076 -3.447873 11.347178 79.181404 0.000081
17 -0.000020 0.000018 0.000081 -10.814125 10.118443 89.430214 0.000086
[Rope1_Seg02]
16 139.999863 -0.000179 0.000000 21.084629 -3.533871 -7.600809 139.999863
17 139.999863 -0.000179 0.000000 15.127139 -1.314878 -9.708718 139.999863
[Rope1_Seg03]
16 139.999924 0.000060 -0.000060 28.038029 -7.812237 -7.757587 139.999924
17 139.999924 0.000060 -0.000060 30.438984 -5.001663 -12.854839 139.999924
[Rope1_Seg04]
16 139.999924 -0.000060 -0.000119 42.335785 -22.595947 -13.629890 139.999924
17 139.999924 -0.000060 -0.000119 53.030937 -18.659599 -20.474028 139.999924
[Rope1_Seg05]
16 139.999832 0.000119 -0.000060 -0.444704 -3.792319 4.654330 139.999832
17 139.999832 0.000119 -0.000060 -7.738828 3.244755 4.737691 139.999832
[Rope1_Seg06]
16 139.999954 0.000119 -0.000060 -51.355495 46.913498 13.315171 139.999954
17 139.999954 0.000119 -0.000060 -44.932865 32.476879 14.641917 139.999954
[Rope1_Seg07]
16 139.999985 0.000060 0.000000 -16.611349 10.068833 28.899466 139.999985
17 139.999985 0.000060 0.000000 -12.191347 4.255631 14.857598 139.999985
[Rope1_Seg09]
16 121.602913 0.000119 -0.000089 -89.793175 -1.359789 0.847147 121.602913
17 121.602913 0.000119 -0.000089 -89.793175 -1.359789 0.847147 121.602913
[L_mid_hand01]
16 103.859421 1.038730 8.195221 106.855484 -31.239275 -9.461397 104.187431
17 103.859421 1.038730 8.195221 106.855484 -31.239275 -9.461397 104.187431
[L_mid_hand02]
16 105.572853 -4.139662 -10.864139 -142.331345 25.752670 -28.774628 106.211075
17 105.572853 -4.139662 -10.864139 -142.331345 25.752670 -28.774628 106.211075
[L_mid_hand03]
16 104.641464 17.579376 -3.913581 -16.122810 9.734291 34.223598 106.179977
17 104.641464 17.579376 -3.913581 -16.122810 9.734291 34.223598 106.179977
[null_rope02_connect]
16 328.732849 0.000179 -0.000119 126.184128 -61.570927 121.249985 328.732849
17 328.732849 0.000179 -0.000119 111.664619 -53.983894 135.002472 328.732849
[Rope2_Seg01]
16 -0.000129 -0.000076 -0.000153 44.403263 -57.891510 116.498001 0.000214
17 -0.000130 -0.000071 -0.000153 31.981070 -53.803383 129.599091 0.000213
[Rope2_Seg02]
16 139.999741 -0.000060 -0.000119 1.506987 2.412930 -8.349699 139.999756
17 139.999741 -0.000060 -0.000119 2.640594 2.745833 -9.610792 139.999756
[Rope2_Seg03]
16 140.000107 0.000030 0.000000 4.072618 3.566818 -13.953453 140.000107
17 140.000107 0.000030 0.000000 6.759457 3.683524 -15.984079 140.000107
[Rope2_Seg04]
16 139.999802 0.000000 -0.000060 16.642809 1.975681 -29.886095 139.999802
17 139.999802 0.000000 -0.000060 24.560328 1.485418 -33.179104 139.999802
[Rope2_Seg05]
16 139.999985 -0.000060 0.000119 25.716423 -7.809413 -31.469889 139.999985
17 139.999985 -0.000060 0.000119 21.818064 -8.221902 -22.550497 139.999985
[Rope2_Seg06]
16 139.999893 -0.000030 -0.000119 -4.301622 11.861794 -0.251354 139.999893
17 139.999893 -0.000030 -0.000119 -8.421050 10.962235 5.247788 139.999893
[Rope2_Seg07]
16 139.999893 0.000060 -0.000060 -30.302525 25.046822 13.245335 139.999893
17 139.999893 0.000060 -0.000060 -20.961950 15.357281 14.080319 139.999893
[Rope2_Seg09]
16 121.338966 0.000089 -0.000060 33.793236 -1.359788 -0.847141 121.338966
17 121.338966 0.000089 -0.000060 33.793236 -1.359788 -0.847141 121.338966
[R_mid_hand01]
16 104.680779 11.144459 -10.335981 -41.523792 25.424656 28.595957 105.778534
17 104.680779 11.144459 -10.335981 -41.523792 25.424656 28.595957 105.778534
[R_mid_hand02]
16 104.070427 2.443552 8.231699 72.847389 -32.746803 10.013901 104.424065
17 104.070427 2.443552 8.231699 72.847389 -32.746803 10.013901 104.424065
[R_mid_hand03]
16 106.028137 -11.221827 -5.996406 -167.901306 10.259192 -37.009720 106.788818
17 106.028137 -11.221827 -5.996406 -167.901306 10.259192 -37.009720 106.788818
[spine02]
16 129.756927 0.001550 0.000119 0.001147 -1.797837 -7.854275 129.756927
17 129.756927 0.001550 0.000119 0.001147 -1.797837 -7.854274 129.756927
[spine03]
16 79.115631 0.000000 -0.000119 1.459971 -2.848092 23.765963 79.115631
17 79.115631 0.000000 -0.000119 1.459971 -2.848092 23.765963 79.115631
[pelvis]
16 169.435242 0.051022 0.000000 -0.000005 0.000003 -4.322055 169.435257
17 169.435242 0.051022 0.000000 -0.000005 0.000003 -4.322055 169.435257
[null_rope03_connect]
16 -1.257226 -2.466202 137.391083 -84.205940 70.400688 170.110703 137.418976
17 -1.257226 -2.466202 137.391083 -81.508881 68.380058 172.939301 137.418976
[null_rope04_connect]
16 -1.259640 -2.480268 -137.844437 -84.205940 70.400688 170.110703 137.872513
17 -1.259640 -2.480268 -137.844437 -81.508881 68.380058 172.939301 137.872513
[Rope3_Seg01]
16 0.000019 -0.000052 0.000076 -127.785492 -17.945793 90.716957 0.000095
17 0.000023 -0.000051 0.000081 -131.652496 -12.790176 105.517250 0.000099
[Rope3_Seg02]
16 139.999924 -0.000119 0.000060 -0.142449 -3.535455 -0.300724 139.999924
17 139.999924 -0.000119 0.000060 0.162823 -0.163608 1.440664 139.999924
[Rope3_Seg03]
16 139.999924 -0.000119 0.000119 -0.043319 -4.312163 -0.382744 139.999924
17 139.999924 -0.000119 0.000119 0.147400 -0.183474 1.653345 139.999924
[Rope3_Seg04]
16 139.999924 0.000119 0.000000 0.084494 -5.390809 -0.497433 139.999924
17 139.999924 0.000119 0.000000 0.047649 0.539858 2.410639 139.999924
[Rope3_Seg05]
16 139.999924 -0.000238 0.000060 0.676032 -7.249634 -0.710182 139.999924
17 139.999924 -0.000238 0.000060 0.194678 1.846121 3.685506 139.999924
[Rope3_Seg06]
16 139.999893 -0.000119 -0.000060 1.451243 -7.485911 -0.489812 139.999893
17 139.999893 -0.000119 -0.000060 0.337803 -4.129339 0.147849 139.999893
[Rope3_Seg07]
16 139.999771 0.000060 -0.000119 1.613108 -5.623798 -0.042906 139.999771
17 139.999771 0.000060 -0.000119 1.212101 -9.533445 -3.380487 139.999771
[Rope3_Seg08]
16 139.999985 -0.000060 0.000000 1.638253 -4.585322 0.044971 139.999985
17 139.999985 -0.000060 0.000000 1.361748 -5.973619 -1.480964 139.999985
[Rope3_Seg09]
16 90.185997 -0.000179 -0.000060 89.793228 -1.359877 -0.847183 90.185997
17 90.185997 -0.000179 -0.000060 89.793228 -1.359877 -0.847183 90.185997
[R_rear_hand01]
16 103.366196 -6.073594 -10.757982 -161.551193 16.666374 -30.088671 104.101845
17 103.366196 -6.073594 -10.757982 -161.551193 16.666374 -30.088671 104.101845
[R_rear_hand02]
16 100.509819 12.039542 -7.992327 -34.280552 19.289745 28.875523 101.543350
17 100.509819 12.039542 -7.992327 -34.280552 19.289745 28.875523 101.543350
[R_rear_hand03]
16 101.539970 5.215704 5.435467 83.366440 -30.933914 7.284830 101.819031
17 101.539970 5.215704 5.435467 83.366440 -30.933914 7.284830 101.819031
[Rope4_Seg01]
16 -0.000038 0.000101 0.000000 52.512474 -25.404348 66.435204 0.000108
17 -0.000046 0.000100 0.000000 40.679066 -19.986864 96.791481 0.000110
[Rope4_Seg02]
16 139.999985 0.000060 0.000119 0.519749 15.577884 5.755760 139.999985
17 139.999985 0.000060 0.000119 1.205471 4.489089 -4.416898 139.999985
[Rope4_Seg03]
16 139.999924 0.000000 -0.000238 0.605363 11.072528 4.379369 139.999924
17 139.999924 0.000000 -0.000238 0.629295 1.033128 -2.263009 139.999924
[Rope4_Seg04]
16 139.999985 0.000000 0.000119 0.252080 7.545162 4.247091 139.999985
17 139.999985 0.000000 0.000119 0.342694 0.020499 -1.338596 139.999985
[Rope4_Seg05]
16 139.999802 -0.000060 -0.000119 0.549315 4.409230 1.111692 139.999802
17 139.999802 -0.000060 -0.000119 0.389231 1.917413 -0.486467 139.999802
[Rope4_Seg06]
16 139.999924 0.000000 0.000060 1.442945 3.889623 -1.132154 139.999924
17 139.999924 0.000000 0.000060 0.710551 4.365514 -0.099937 139.999924
[Rope4_Seg07]
16 139.999802 0.000000 0.000000 3.043105 5.029171 -3.609193 139.999802
17 139.999802 0.000000 0.000000 1.486520 7.411541 -0.030917 139.999802
[Rope4_Seg08]
16 139.999924 0.000000 0.000119 1.245237 4.800213 -2.579945 139.999924
17 139.999924 0.000000 0.000119 0.015901 5.523281 -0.423396 139.999924
[Rope4_Seg09]
16 90.185791 0.000060 0.000060 -135.617828 2.228885 0.850567 90.185791
17 90.185791 0.000060 0.000060 -135.617828 2.228885 0.850567 90.185791
[L_rear_hand01]
16 101.696655 -8.392275 -7.654577 -34.454281 -18.946800 151.655121 102.329041
17 101.696655 -8.392275 -7.654577 -34.454281 -18.946800 151.655121 102.329041
[L_rear_hand02]
16 102.726799 -1.568258 5.773216 83.407906 30.330435 172.796509 102.900848
17 102.726799 -1.568258 5.773216 83.407906 30.330435 172.796509 102.900848
[L_rear_hand03]
16 104.552910 9.721220 -10.420293 -161.379868 -16.473232 -150.512238 105.519653
17 104.552910 9.721220 -10.420293 -161.379868 -16.473232 -150.512238 105.519653
